<svg id="图层_1" data-name="图层 1" xmlns="http://www.w3.org/2000/svg" viewBox="0 0 1059.79 327.72"><defs><style>.cls-1,.cls-2{fill:#fff;}.cls-2{font-size:28px;font-family:JetBrainsMono-LightItalic, JetBrains Mono;font-style:italic;letter-spacing:-0.05em;}.cls-3{font-size:21px;letter-spacing:-0.05em;}.cls-4{letter-spacing:-0.03em;}</style></defs><title>FD-LAMT_LOGO</title><path class="cls-1" d="M1194.42,398.77a13.37,13.37,0,0,0-13.12,10.83H440.21l10.35-61.86c2.92-17.47-8.87-31.63-26.33-31.63h0c-17.38,0-33.83,14.09-36.73,31.47L357.7,525.64a5.92,5.92,0,0,1-5.62,4.81,4,4,0,0,1-4-4.81l44.7-267.09c2.92-17.43-8.84-31.55-26.27-31.55h0c-17.42,0-33.91,14.12-36.82,31.55l-32.77,195.8a5.91,5.91,0,0,1-5.61,4.81,4,4,0,0,1-4-4.81l17.85-106.69c2.92-17.42-8.84-31.55-26.26-31.55h0c-17.43,0-33.91,14.13-36.83,31.55l-10.38,62H219.73l7.46-44.56c1.23-7.38-3.75-13.36-11.13-13.36s-14.37,6-15.61,13.36L193,409.68H174a13.35,13.35,0,1,0,.77,4.46H193a10.87,10.87,0,0,0,11.1,8.91c5.81,0,11.37-3.73,14.08-8.91H231.7a10.87,10.87,0,0,0,11.1,8.91h0c7.38,0,14.37-6,15.61-13.37L269.2,345.2a5.92,5.92,0,0,1,5.61-4.82,4,4,0,0,1,4,4.82L260,457.93c-2.36,14.08,7.15,25.5,21.23,25.5h12.39c13.92,0,27.09-11.28,29.42-25.2l33.82-202.15a5.93,5.93,0,0,1,5.62-4.81,4,4,0,0,1,4,4.81l-44.7,267.1c-2.91,17.42,8.85,31.54,26.27,31.54h0c17.42,0,33.91-14.12,36.82-31.54l29.79-178a5.92,5.92,0,0,1,5.61-4.82h0a4,4,0,0,1,4,4.82l-10.79,64.48c-1.23,7.38,3.75,13.37,11.13,13.37a16.44,16.44,0,0,0,14-8.83h742.6a13.36,13.36,0,1,0,13.19-15.45Z" transform="translate(-148 -227)"/><path class="cls-1" d="M456.39,397.92l20.95-116.84a2.43,2.43,0,0,1,2.39-2h83.5a2.41,2.41,0,0,1,2.38,2.86l-3.43,18.5a2.42,2.42,0,0,1-2.38,2H503.26a2.42,2.42,0,0,0-2.39,2L497,326.59a2.43,2.43,0,0,0,2.39,2.84h49.93a2.42,2.42,0,0,1,2.39,2.84l-3.29,18.5a2.41,2.41,0,0,1-2.38,2H494.78a2.42,2.42,0,0,0-2.38,2l-7.94,44a2.42,2.42,0,0,1-2.38,2H458.77A2.42,2.42,0,0,1,456.39,397.92Z" transform="translate(-148 -227)"/><path class="cls-1" d="M558,397.92l21-116.84a2.42,2.42,0,0,1,2.38-2h42.57q14.31,0,24.09,4.83t14.11,13.59q4.33,8.75,2.26,20.58l-7.9,43.51a42.45,42.45,0,0,1-9.6,20.5,50.71,50.71,0,0,1-19,13.75,64.86,64.86,0,0,1-25.78,4.92H560.38A2.42,2.42,0,0,1,558,397.92Zm32.36-23.33a2.42,2.42,0,0,0,2.38,2.84h13.48a24.45,24.45,0,0,0,14.68-4.33,17.62,17.62,0,0,0,7.34-11.5l7.91-43.51q1.13-7-3.39-11.33t-13.18-4.33H605.24a2.41,2.41,0,0,0-2.38,2Z" transform="translate(-148 -227)"/><path class="cls-1" d="M680.3,354.59l3.28-18.5a2.43,2.43,0,0,1,2.39-2h60.94a2.42,2.42,0,0,1,2.39,2.84L746,355.43a2.41,2.41,0,0,1-2.38,2H682.69A2.42,2.42,0,0,1,680.3,354.59Z" transform="translate(-148 -227)"/><path class="cls-1" d="M773.64,397.92l21-116.84a2.43,2.43,0,0,1,2.39-2h23.3a2.43,2.43,0,0,1,2.39,2.85L806,374.58a2.43,2.43,0,0,0,2.39,2.85h49.72a2.43,2.43,0,0,1,2.39,2.85l-3.28,18.49a2.42,2.42,0,0,1-2.39,2H776A2.43,2.43,0,0,1,773.64,397.92Z" transform="translate(-148 -227)"/><path class="cls-1" d="M860.69,397.34,914,280.51a2.42,2.42,0,0,1,2.2-1.42h32a2.41,2.41,0,0,1,2.41,2.18l11.75,116.84a2.43,2.43,0,0,1-2.41,2.66H936.86a2.41,2.41,0,0,1-2.41-2.27l-1.42-23a2.43,2.43,0,0,0-2.42-2.28H901.76a2.41,2.41,0,0,0-2.23,1.49l-10.24,24.53a2.42,2.42,0,0,1-2.23,1.49H862.89A2.42,2.42,0,0,1,860.69,397.34Zm51.36-44.08h17a2.42,2.42,0,0,0,2.42-2.53l-1.2-26.8q-.19-6.33-.66-12.59t-.66-9.75q-1.32,3.5-3.48,9.67c-1.45,4.11-3,8.28-4.8,12.5l-10.84,26.16A2.41,2.41,0,0,0,912.05,353.26Z" transform="translate(-148 -227)"/><path class="cls-1" d="M965.77,397.92l21-116.84a2.41,2.41,0,0,1,2.38-2h27.12a2.43,2.43,0,0,1,2.4,2.07l5.34,36.27q.93,6,1.22,10.5a45.34,45.34,0,0,1,.1,6.33q.56-1.83,2.35-6.33t4.8-10.5l18.71-37a2.4,2.4,0,0,1,2.16-1.33h28a2.42,2.42,0,0,1,2.38,2.85l-21,116.83a2.41,2.41,0,0,1-2.38,2h-20.86a2.42,2.42,0,0,1-2.38-2.85l5.51-30.49q1.7-9.17,4-19.25t4.8-20.08q2.54-10,5-18.76t4.33-15.25l-24.94,53.61a2.43,2.43,0,0,1-2.19,1.4h-20.22a2.43,2.43,0,0,1-2.4-2.13l-6.51-52.88q-.2,8.18-1,20.5t-2.44,26.17q-1.6,13.85-3.86,26.67l-5.66,31.35a2.42,2.42,0,0,1-2.38,2H968.15A2.42,2.42,0,0,1,965.77,397.92Z" transform="translate(-148 -227)"/><path class="cls-1" d="M1103.13,397.92l16.49-92.65a2.42,2.42,0,0,0-2.39-2.84h-29a2.43,2.43,0,0,1-2.38-2.87l3.43-18.49a2.41,2.41,0,0,1,2.38-2h92.93A2.42,2.42,0,0,1,1187,282l-3.43,18.5a2.42,2.42,0,0,1-2.38,2h-30.77a2.41,2.41,0,0,0-2.38,2l-16.79,94.35a2.42,2.42,0,0,1-2.39,2h-23.31A2.42,2.42,0,0,1,1103.13,397.92Z" transform="translate(-148 -227)"/><text class="cls-2" transform="translate(302.79 219.3) scale(1 1.07)">Fudan Univ<tspan class="cls-3" x="153.72" y="0">.</tspan><tspan x="165.25" y="0" xml:space="preserve"> - Lab of Audio and Music Technology</tspan><tspan class="cls-4" x="718.63" y="0"> </tspan></text><polygon points="79 -140 79 -140 79 -140 79 -140 79 -140"/></svg>